<svg width="972" height="600" viewBox="0 0 972 600" fill="none" xmlns="http://www.w3.org/2000/svg">
<path d="M0.5 0H971.5V590C971.5 595.523 967.023 600 961.5 600H10.5C4.97716 600 0.5 595.523 0.5 590V0Z" fill="#C7E6FF"/>
<g clip-path="url(#clip0_90_161)">
<mask id="mask0_90_161" style="mask-type:luminance" maskUnits="userSpaceOnUse" x="0" y="0" width="971" height="600">
<path d="M0 0H971V600H0V0Z" fill="white"/>
</mask>
<g mask="url(#mask0_90_161)">
<path fill-rule="evenodd" clip-rule="evenodd" d="M0 0H971V600H0V0Z" fill="#46A9E7" fill-opacity="0.0714"/>
<path fill-rule="evenodd" clip-rule="evenodd" d="M581.785 337C570.424 314.11 449.535 369.652 421.939 357.391C387.054 341.891 373.654 337.391 362.062 312.391C351.961 290.556 355.378 275.457 348.834 258.37C323.928 194.027 260.805 184.64 202.499 170.609C188.494 167.34 176.675 161.961 165.77 155V392.965L159 511L449.535 469.544C452.979 456.357 588.099 349.764 581.785 337Z" fill="#C1E7FF"/>
<path fill-rule="evenodd" clip-rule="evenodd" d="M536.924 737.051L983 358.81C980.362 358.19 977.486 357.294 975.055 356.742C940.464 349.431 910.812 359.35 881.979 368.095C852.559 376.862 827.766 380.75 790.533 372.111C756.442 364.142 671.664 315.64 646.481 308.203C551.551 279.965 524.505 353.338 488.473 407.922C467.839 438.983 435.613 456.548 391.882 453.425C352.81 450.628 151.146 472.972 110 446L205 554.5L537.014 736.975L536.924 737.051Z" fill="#9ED2F2"/>
<path fill-rule="evenodd" clip-rule="evenodd" d="M-27.8591 759.882C117.863 728.324 65.1463 587.899 100.191 520.81C146.742 432.049 263.133 435.87 299.214 337.793C312.179 302.699 310.729 262.458 312.839 223.798C314.974 185.307 322.421 143.828 347.909 119.812C366.232 102.519 390.857 96.8853 414.332 91.8912C437.827 87.0602 462.645 81.7341 480.984 64.6108C499.496 47.6322 539.112 -10.7798 508.782 -61.6492C506.243 -66.2055 -127.457 3.4043 -127.457 3.4043L-27.8591 759.882Z" fill="#BCDFF6"/>
<path fill-rule="evenodd" clip-rule="evenodd" d="M457.803 -26C484.246 43.5215 421.662 98.3642 353.441 86.1605C294.14 75.8121 248.455 80.1375 208.556 92.4936C161.461 107.02 111.55 137.608 94.1817 183.337C81.3488 216.863 85.5749 253.941 86.2029 289.937C86.8258 325.933 81.8223 365.019 56.002 390.204C24.2413 421.255 -27.3943 420.019 -66.8197 441.494C-72.2968 444.584 -77.3054 448.137 -82 452V-26L457.803 -26Z" fill="#E6F5FF"/>
<path fill-rule="evenodd" clip-rule="evenodd" d="M94 -26C72.9917 -12.4829 55.9618 5.53986 47.1597 28.0728C35.3831 57.8382 39.3569 90.609 39.9219 122.288C40.3469 154.102 35.9482 188.782 12.5304 210.902C-11.882 234.252 -49.4953 236.983 -82 249V-26L94 -26Z" fill="#9ED2F2"/>
<path fill-rule="evenodd" clip-rule="evenodd" d="M1002.87 469.087C960.746 452.228 926.188 414.664 892.43 379.208C858.249 343.361 824.938 316.443 779.107 299.576C739.084 284.889 639.49 273.444 608.47 264.526C491.608 230.44 461.37 112.898 424.166 5.41345C415.405 -20.4253 403.476 -41.6991 389.013 -60.9231L800.795 -109.166L1003.55 -145.906L1075.65 469.586C1053.6 478.775 1026.36 478.446 1002.87 469.087Z" fill="#BCDFF6"/>
<path fill-rule="evenodd" clip-rule="evenodd" d="M1067 -12V679C1064.81 677.097 1062.26 675.189 1060.26 673.421C1032.22 647.835 1020.57 613.535 1008.55 580.87C996.166 547.659 983.053 522.346 952.279 495.395C924.057 470.763 831.921 431.426 809.888 414.415C726.672 350.446 765.275 270.008 783.667 195.83C794.048 153.502 786.578 111.039 755.81 74.0173C728.313 40.9447 689.344 7.32587 642 -9.14325L681.88 -11.8612H1067V-12Z" fill="#E6F5FF"/>
<path fill-rule="evenodd" clip-rule="evenodd" d="M1066.8 -58.6157V381.076C1004.49 378.456 942.327 334.577 932.409 230.976C921.43 116.911 869.845 109.645 788.495 73.0318C713.103 39.0288 700.67 -29.9907 698.947 -58.4675H1066.8V-58.6157Z" fill="#9ED2F2"/>
<path fill-rule="evenodd" clip-rule="evenodd" d="M1207.92 73C1088.93 83.4486 1117.49 192.302 1083.19 238.95C1037.67 300.651 945.407 287.465 907.331 357.007C893.663 381.887 890.977 411.866 885.609 440.355C880.237 468.717 870.352 498.823 847.774 514.371C831.541 525.569 811.405 527.558 792.245 529.174C773.085 530.668 752.824 532.412 736.595 543.482C720.241 554.43 683.137 594.236 702.422 634.667C704.008 638.273 1215 643 1215 643L1207.92 73Z" fill="#BCDFF6"/>
<path fill-rule="evenodd" clip-rule="evenodd" d="M825.334 610.573C806.869 556.563 850.571 513.957 898.21 523.437C939.619 531.477 971.52 528.116 999.381 518.517C1032.27 507.232 1067.12 483.469 1079.25 447.943C1088.21 421.897 1085.26 393.092 1084.82 365.127C1084.38 337.163 1087.88 306.797 1105.91 287.232C1128.09 263.109 1164.14 264.069 1191.67 247.386C1195.5 244.985 1199 242.225 1202.27 239.224V610.573H825.334Z" fill="#E6F5FF"/>
<path fill-rule="evenodd" clip-rule="evenodd" d="M933.303 610.572C949.475 598.691 962.584 582.849 969.36 563.042C978.425 536.878 975.366 508.072 974.931 480.226C974.604 452.262 977.99 421.778 996.017 402.335C1014.81 381.81 1043.76 379.409 1068.78 368.846V610.572H933.303Z" fill="#9ED2F2"/>
<path fill-rule="evenodd" clip-rule="evenodd" d="M-110.258 389.164C-58.4981 400.075 -19.6233 420.907 18.5373 440.636C57.1846 460.587 96.0594 476.016 152.59 487.148C201.965 496.848 328.618 508.418 367.257 514.702C512.751 538.62 533.977 599.237 565.704 655.228C573.096 668.677 585.259 680.026 601 690.498H62.9051L-204 697V384.646C-174.181 381.339 -139.12 383.101 -110.258 389.164Z" fill="#C1E7FF"/>
<path fill-rule="evenodd" clip-rule="evenodd" d="M-242 634V46C-146.984 49.5033 -52.1728 108.183 -37.0479 246.729C-20.3038 399.268 58.3667 408.985 182.432 457.948C297.411 503.42 316.372 595.72 319 633.802H-242L-242 634Z" fill="#9ED2F2"/>
</g>
</g>
<defs>
<clipPath id="clip0_90_161">
<path d="M0 0H971V590C971 595.523 966.523 600 961 600H10C4.47716 600 0 595.523 0 590V0Z" fill="white"/>
</clipPath>
</defs>
</svg>
