<svg width="1280" height="743" viewBox="0 0 1280 743" fill="none" xmlns="http://www.w3.org/2000/svg">
<path d="M0 0H1280V743H0V0Z" fill="#C7E6FF"/>
<g clip-path="url(#clip0_88_98)">
<mask id="mask0_88_98" style="mask-type:luminance" maskUnits="userSpaceOnUse" x="0" y="0" width="1280" height="743">
<path d="M0 0H1280V743H0V0Z" fill="white"/>
</mask>
<g mask="url(#mask0_88_98)">
<path fill-rule="evenodd" clip-rule="evenodd" d="M0 -146.124H1280V743H0V-146.124Z" fill="#46A9E7" fill-opacity="0.0714"/>
<path fill-rule="evenodd" clip-rule="evenodd" d="M766.927 417.318C751.949 388.973 592.59 457.752 556.213 442.569C510.226 423.375 492.562 417.802 477.281 386.844C463.966 359.805 468.47 341.108 459.844 319.948C427.011 240.27 343.8 228.646 266.941 211.271C248.479 207.223 232.899 200.562 218.524 191.942V486.622L209.599 632.788L592.59 581.452C597.13 565.122 775.249 433.124 766.927 417.318Z" fill="#C1E7FF"/>
<path fill-rule="evenodd" clip-rule="evenodd" d="M707.789 912.715L1295.82 444.327C1292.34 443.558 1288.55 442.449 1285.35 441.765C1239.75 432.712 1200.66 444.994 1162.65 455.824C1123.87 466.681 1091.19 471.495 1042.1 460.797C997.164 450.929 885.407 390.867 852.21 381.658C727.07 346.689 691.418 437.55 643.919 505.143C616.719 543.607 574.237 565.358 516.591 561.492C465.084 558.027 199.245 585.697 145.005 552.296L270.237 686.656L707.907 912.621L707.789 912.715Z" fill="#9ED2F2"/>
<path fill-rule="evenodd" clip-rule="evenodd" d="M-36.7248 940.987C155.37 901.907 85.8777 728.015 132.074 644.936C193.44 535.02 346.869 539.752 394.432 418.3C411.523 374.841 409.612 325.009 412.393 277.136C415.207 229.471 425.024 178.107 458.623 148.366C482.777 126.953 515.238 119.976 546.184 113.791C577.156 107.809 609.872 101.213 634.046 80.0091C658.45 58.9839 710.673 -13.3496 670.691 -76.3428C667.344 -81.9851 -168.018 4.21503 -168.018 4.21503L-36.7248 940.987Z" fill="#BCDFF6"/>
<path fill-rule="evenodd" clip-rule="evenodd" d="M603.489 -32.1966C638.347 53.8942 555.847 121.808 465.916 106.695C387.744 93.8807 327.521 99.237 274.925 114.538C212.842 132.527 147.048 170.404 124.153 227.033C107.236 268.549 112.807 314.464 113.635 359.039C114.456 403.614 107.861 452.016 73.8235 483.203C31.9556 521.654 -36.1119 520.124 -88.0837 546.717C-95.3037 550.544 -101.906 554.943 -108.095 559.727V-32.1967L603.489 -32.1966Z" fill="#E6F5FF"/>
<path fill-rule="evenodd" clip-rule="evenodd" d="M123.914 -32.1966C96.2198 -15.458 73.7705 6.86021 62.1673 34.7635C46.6431 71.623 51.8814 112.204 52.6263 151.433C53.1864 190.83 47.3879 233.775 16.5179 261.166C-15.6632 290.082 -65.2461 293.464 -108.095 308.345V-32.1967L123.914 -32.1966Z" fill="#9ED2F2"/>
<path fill-rule="evenodd" clip-rule="evenodd" d="M1322.02 580.886C1266.48 560.008 1220.93 513.492 1176.43 469.586C1131.37 425.195 1087.46 391.862 1027.04 370.974C974.281 352.787 842.994 338.614 802.103 327.571C648.052 285.362 608.192 139.804 559.148 6.70329C547.598 -25.2936 531.874 -51.6378 512.808 -75.4435L1055.63 -135.184L1322.9 -180.681L1417.96 581.503C1388.88 592.883 1352.98 592.475 1322.02 580.886Z" fill="#BCDFF6"/>
<path fill-rule="evenodd" clip-rule="evenodd" d="M1406.55 -14.86V840.828C1403.67 838.472 1400.3 836.11 1397.67 833.919C1360.7 802.236 1345.34 759.761 1329.5 719.311C1313.18 678.184 1295.89 646.839 1255.32 613.464C1218.12 582.961 1096.66 534.249 1067.62 513.184C957.919 433.969 1008.81 334.36 1033.05 242.502C1046.74 190.086 1036.89 137.504 996.331 91.658C960.083 50.7032 908.713 9.07182 846.303 -11.3224L898.873 -14.6882H1406.55V-14.86Z" fill="#E6F5FF"/>
<path fill-rule="evenodd" clip-rule="evenodd" d="M1406.28 -72.5862V471.899C1324.15 468.655 1242.2 414.318 1229.13 286.025C1214.66 144.775 1146.66 135.777 1039.42 90.4373C940.033 48.3302 923.644 -37.1388 921.372 -72.4027H1406.28V-72.5862Z" fill="#9ED2F2"/>
<path fill-rule="evenodd" clip-rule="evenodd" d="M1592.32 90.3983C1435.46 103.337 1473.11 238.134 1427.9 295.9C1367.89 372.306 1246.26 355.977 1196.07 442.094C1178.05 472.903 1174.51 510.027 1167.44 545.306C1160.35 580.428 1147.32 617.709 1117.56 636.963C1096.16 650.829 1069.62 653.292 1044.36 655.294C1019.1 657.144 992.395 659.303 971.001 673.012C949.443 686.569 900.531 735.862 925.953 785.93C928.044 790.395 1601.65 796.248 1601.65 796.248L1592.32 90.3983Z" fill="#BCDFF6"/>
<path fill-rule="evenodd" clip-rule="evenodd" d="M1087.98 756.092C1063.64 689.21 1121.25 636.449 1184.05 648.189C1238.63 658.145 1280.69 653.984 1317.41 642.097C1360.76 628.122 1406.71 598.695 1422.7 554.702C1434.51 522.449 1430.62 486.778 1430.04 452.149C1429.47 417.519 1434.07 379.917 1457.84 355.688C1487.08 325.816 1534.61 327.005 1570.9 306.345C1575.94 303.372 1580.55 299.954 1584.87 296.238V756.092H1087.98Z" fill="#E6F5FF"/>
<path fill-rule="evenodd" clip-rule="evenodd" d="M1230.31 756.091C1251.63 741.378 1268.91 721.76 1277.84 697.233C1289.79 664.834 1285.76 629.163 1285.18 594.68C1284.75 560.051 1289.22 522.302 1312.98 498.224C1337.75 472.807 1375.92 469.834 1408.9 456.754V756.091H1230.31Z" fill="#9ED2F2"/>
<path fill-rule="evenodd" clip-rule="evenodd" d="M-145.345 481.915C-77.1138 495.426 -25.8679 521.223 24.4366 545.654C75.3825 570.36 126.628 589.466 201.149 603.251C266.236 615.263 433.193 629.591 484.129 637.373C675.923 666.991 703.904 742.055 745.727 811.39C755.471 828.045 771.505 842.099 792.255 855.067H82.9235L-268.918 863.118V476.32C-229.61 472.224 -183.391 474.407 -145.345 481.915Z" fill="#C1E7FF"/>
<path fill-rule="evenodd" clip-rule="evenodd" d="M-319.011 785.103V56.9633C-193.758 61.3015 -68.7756 133.967 -48.8376 305.532C-26.7649 494.427 76.9408 506.46 240.487 567.092C392.056 623.402 417.051 737.7 420.515 784.858H-319.011L-319.011 785.103Z" fill="#9ED2F2"/>
</g>
</g>
<defs>
<clipPath id="clip0_88_98">
<rect width="1280" height="743" fill="white"/>
</clipPath>
</defs>
</svg>
