<svg width="971" height="600" viewBox="0 0 971 600" fill="none" xmlns="http://www.w3.org/2000/svg">
<g clip-path="url(#clip0_53_86)">
<mask id="mask0_53_86" style="mask-type:luminance" maskUnits="userSpaceOnUse" x="0" y="0" width="971" height="600">
<path d="M0 0H971V600H0V0Z" fill="white"/>
</mask>
<g mask="url(#mask0_53_86)">
<path fill-rule="evenodd" clip-rule="evenodd" d="M0 0H971V600H0V0Z" fill="#46A9E7" fill-opacity="0.0714"/>
<path fill-rule="evenodd" clip-rule="evenodd" d="M581.785 337C570.423 314.11 449.535 369.652 421.939 357.391C387.054 341.891 373.654 337.391 362.062 312.391C351.961 290.556 355.378 275.457 348.834 258.37C323.928 194.027 260.805 184.64 202.499 170.609C188.494 167.34 176.675 161.961 165.77 155V392.965L159 511L449.535 469.544C452.979 456.357 588.099 349.764 581.785 337Z" fill="#C1E7FF"/>
<path fill-rule="evenodd" clip-rule="evenodd" d="M536.924 737.051L983 358.81C980.362 358.19 977.486 357.294 975.055 356.741C940.464 349.431 910.812 359.349 881.979 368.095C852.559 376.862 827.766 380.75 790.533 372.111C756.442 364.142 671.664 315.64 646.481 308.203C551.551 279.964 524.505 353.338 488.473 407.921C467.839 438.982 435.613 456.547 391.882 453.425C352.81 450.627 151.146 472.972 110 446L205 554.5L537.014 736.975L536.924 737.051Z" fill="#9ED2F2"/>
<path fill-rule="evenodd" clip-rule="evenodd" d="M-27.8591 759.882C117.863 728.323 65.1463 587.899 100.191 520.81C146.742 432.048 263.133 435.87 299.214 337.793C312.179 302.698 310.729 262.457 312.839 223.798C314.974 185.307 322.421 143.828 347.909 119.811C366.232 102.519 390.857 96.8848 414.332 91.8907C437.827 87.0597 462.645 81.7336 480.984 64.6103C499.496 47.6317 539.112 -10.7803 508.782 -61.6497C506.243 -66.206 -127.457 3.40381 -127.457 3.40381L-27.8591 759.882Z" fill="#BCDFF6"/>
<path fill-rule="evenodd" clip-rule="evenodd" d="M457.803 -26C484.246 43.5215 421.662 98.3642 353.441 86.1605C294.14 75.8121 248.455 80.1375 208.556 92.4936C161.461 107.02 111.55 137.608 94.1817 183.337C81.3488 216.863 85.5749 253.941 86.2029 289.937C86.8258 325.933 81.8223 365.019 56.002 390.204C24.2413 421.255 -27.3943 420.02 -66.8197 441.494C-72.2968 444.584 -77.3054 448.137 -82 452V-26L457.803 -26Z" fill="#E6F5FF"/>
<path fill-rule="evenodd" clip-rule="evenodd" d="M94 -26C72.9917 -12.4829 55.9619 5.53986 47.1597 28.0728C35.3831 57.8382 39.3569 90.609 39.9219 122.288C40.3469 154.102 35.9482 188.782 12.5304 210.902C-11.882 234.252 -49.4953 236.983 -82 249V-26L94 -26Z" fill="#9ED2F2"/>
<path fill-rule="evenodd" clip-rule="evenodd" d="M1002.87 469.087C960.746 452.227 926.187 414.664 892.43 379.208C858.249 343.36 824.938 316.443 779.107 299.576C739.084 284.889 639.49 273.444 608.47 264.525C491.608 230.44 461.37 112.897 424.166 5.41321C415.404 -20.4255 403.476 -41.6994 389.013 -60.9233L800.795 -109.166L1003.55 -145.906L1075.65 469.585C1053.6 478.775 1026.36 478.446 1002.87 469.087Z" fill="#BCDFF6"/>
<path fill-rule="evenodd" clip-rule="evenodd" d="M1067 -12V679C1064.81 677.097 1062.26 675.189 1060.26 673.421C1032.22 647.835 1020.57 613.535 1008.55 580.87C996.166 547.659 983.053 522.346 952.279 495.395C924.057 470.763 831.921 431.426 809.888 414.415C726.672 350.446 765.275 270.008 783.667 195.83C794.048 153.502 786.578 111.039 755.81 74.0173C728.313 40.9447 689.344 7.32587 642 -9.14325L681.88 -11.8612H1067V-12Z" fill="#E6F5FF"/>
<path fill-rule="evenodd" clip-rule="evenodd" d="M1066.8 -58.616V381.076C1004.49 378.456 942.327 334.577 932.409 230.976C921.43 116.911 869.845 109.645 788.495 73.0315C713.103 39.0285 700.67 -29.9909 698.947 -58.4678H1066.8V-58.616Z" fill="#9ED2F2"/>
<path fill-rule="evenodd" clip-rule="evenodd" d="M1207.92 73C1088.93 83.4486 1117.49 192.302 1083.19 238.95C1037.67 300.651 945.407 287.465 907.331 357.008C893.663 381.887 890.977 411.866 885.609 440.355C880.237 468.717 870.352 498.823 847.774 514.371C831.541 525.569 811.405 527.558 792.245 529.174C773.085 530.668 752.824 532.412 736.595 543.482C720.241 554.43 683.137 594.236 702.422 634.667C704.008 638.273 1215 643 1215 643L1207.92 73Z" fill="#BCDFF6"/>
<path fill-rule="evenodd" clip-rule="evenodd" d="M825.334 610.572C806.869 556.562 850.571 513.956 898.21 523.437C939.619 531.477 971.52 528.116 999.381 518.517C1032.27 507.232 1067.12 483.469 1079.25 447.942C1088.21 421.897 1085.26 393.091 1084.82 365.127C1084.38 337.162 1087.88 306.797 1105.91 287.231C1128.09 263.109 1164.14 264.068 1191.67 247.385C1195.5 244.985 1199 242.224 1202.27 239.223V610.572H825.334Z" fill="#E6F5FF"/>
<path fill-rule="evenodd" clip-rule="evenodd" d="M933.303 610.572C949.475 598.69 962.584 582.848 969.36 563.042C978.425 536.878 975.366 508.072 974.931 480.226C974.604 452.262 977.99 421.778 996.017 402.335C1014.81 381.809 1043.76 379.409 1068.78 368.846V610.572H933.303Z" fill="#9ED2F2"/>
<path fill-rule="evenodd" clip-rule="evenodd" d="M-110.258 389.164C-58.4981 400.075 -19.6234 420.907 18.5373 440.636C57.1846 460.587 96.0594 476.016 152.59 487.148C201.965 496.848 328.618 508.418 367.257 514.702C512.751 538.62 533.977 599.237 565.703 655.228C573.096 668.677 585.259 680.026 601 690.498H62.9052L-204 697V384.646C-174.181 381.339 -139.12 383.101 -110.258 389.164Z" fill="#C1E7FF"/>
<path fill-rule="evenodd" clip-rule="evenodd" d="M-242 634V46C-146.984 49.5033 -52.1728 108.183 -37.0479 246.729C-20.3038 399.268 58.3668 408.985 182.432 457.948C297.411 503.42 316.372 595.72 319 633.802H-242L-242 634Z" fill="#9ED2F2"/>
</g>
<path d="M1125 743L-155 743V0L1125 0V743Z" fill="#C7E6FF"/>
<g clip-path="url(#clip1_53_86)">
<mask id="mask1_53_86" style="mask-type:luminance" maskUnits="userSpaceOnUse" x="-155" y="0" width="1280" height="743">
<path d="M1125 743L-155 743V0L1125 0V743Z" fill="white"/>
</mask>
<g mask="url(#mask1_53_86)">
<path fill-rule="evenodd" clip-rule="evenodd" d="M1125 889.124L-155 889.124V0.000366211L1125 0.000366211V889.124Z" fill="#E0AAFF"/>
<path fill-rule="evenodd" clip-rule="evenodd" d="M349.287 320.433C364.49 349.431 547.177 297.336 585.5 309C608.5 316 627.779 319.938 643.291 351.609C656.806 379.271 652.234 398.398 660.99 420.046C694.316 501.559 778.779 513.451 856.795 531.225C875.535 535.367 891.349 542.181 905.941 551V249.533L915 100L526.246 152.519C521.639 169.225 340.839 304.263 349.287 320.433Z" fill="#994CDC"/>
<path fill-rule="evenodd" clip-rule="evenodd" d="M380.787 -210.067L-207.243 258.321C-203.606 259.266 -199.628 260.581 -196.277 261.427C-148.635 272.744 -108.698 261.402 -69.8144 251.542C-30.1289 241.686 3.50906 237.93 54.8335 251.113C101.83 263.259 220.302 330.76 255.104 341.748C386.308 383.436 419.147 289.458 465.306 220.38C491.749 181.078 534.775 159.93 594.664 166.281C648.175 171.965 922.304 153.481 979.995 190.704L844.219 44.6624L380.669 -209.973L380.787 -210.067Z" fill="#7B2CBF"/>
<path fill-rule="evenodd" clip-rule="evenodd" d="M1161.72 -197.987C969.63 -158.907 1039.12 14.9853 992.926 98.0637C931.56 207.98 778.131 203.248 730.568 324.7C713.477 368.159 715.388 417.99 712.607 465.864C709.793 513.529 699.976 564.893 666.377 594.634C642.223 616.047 609.762 623.024 578.816 629.209C547.844 635.191 515.128 641.787 490.954 662.991C466.55 684.016 414.327 756.35 454.309 819.343C457.656 824.985 1293.02 738.785 1293.02 738.785L1161.72 -197.987Z" fill="#54137A"/>
<path fill-rule="evenodd" clip-rule="evenodd" d="M521.511 775.197C486.653 689.106 569.153 621.193 659.084 636.305C737.256 649.119 797.479 643.763 850.075 628.462C912.158 610.474 977.952 572.596 1000.85 515.968C1017.76 474.452 1012.19 428.536 1011.36 383.961C1010.54 339.386 1017.14 290.985 1051.18 259.797C1093.04 221.346 1161.11 222.876 1213.08 196.283C1220.3 192.457 1226.91 188.057 1233.09 183.273V775.197L521.511 775.197Z" fill="#E0AAFF"/>
<path fill-rule="evenodd" clip-rule="evenodd" d="M-197.018 162.114C-141.483 182.992 -95.9272 229.508 -51.427 273.414C-6.36872 317.805 37.5431 351.138 97.9584 372.026C150.718 390.213 282.006 404.386 322.897 415.429C476.948 457.638 516.808 603.196 565.852 736.297C577.402 768.294 593.126 794.638 612.192 818.443L69.3685 878.184L-197.904 923.681L-292.959 161.497C-263.884 150.117 -227.979 150.525 -197.018 162.114Z" fill="#9D4EDD"/>
<path fill-rule="evenodd" clip-rule="evenodd" d="M-281.55 757.86L-281.55 -97.8282C-278.667 -95.4717 -275.303 -93.1095 -272.666 -90.9193C-235.7 -59.2355 -220.34 -16.7614 -204.498 23.6889C-188.175 64.8157 -170.889 96.1611 -130.321 129.536C-93.1186 160.039 28.3377 208.751 57.383 229.816C167.081 309.031 116.192 408.64 91.9482 500.498C78.2627 552.914 88.1103 605.497 128.669 651.342C164.917 692.297 216.287 733.928 278.697 754.322L226.127 757.688L-281.55 757.688V757.86Z" fill="#54137A"/>
<path fill-rule="evenodd" clip-rule="evenodd" d="M-281.283 815.586L-281.283 271.101C-199.154 274.345 -117.202 328.682 -104.129 456.975C-89.6555 598.225 -21.6553 607.223 85.5826 652.563C184.967 694.67 201.356 780.139 203.628 815.403L-281.283 815.403V815.586Z" fill="#7B2CBF"/>
<path fill-rule="evenodd" clip-rule="evenodd" d="M-467.317 652.602C-310.462 639.663 -348.105 504.867 -302.899 447.1C-242.893 370.694 -121.263 387.023 -71.0701 300.906C-53.0531 270.097 -49.5123 232.973 -42.4356 197.694C-35.3537 162.572 -22.3227 125.291 7.43919 106.037C28.8383 92.1709 55.3821 89.7078 80.6398 87.7059C105.897 85.8561 132.605 83.6971 153.999 69.9879C175.557 56.4307 224.469 7.13831 199.047 -42.9294C196.956 -47.3945 -476.648 -53.2482 -476.648 -53.2482L-467.317 652.602Z" fill="#9D4EDD"/>
<path fill-rule="evenodd" clip-rule="evenodd" d="M37.0206 -13.0921C61.3619 53.7902 3.75225 106.551 -59.0459 94.8105C-113.632 84.8549 -155.686 89.0161 -192.413 100.903C-235.765 114.878 -281.708 144.305 -297.696 188.298C-309.509 220.551 -305.618 256.222 -305.04 290.851C-304.467 325.481 -309.073 363.083 -332.84 387.312C-362.076 417.183 -409.607 415.995 -445.899 436.655C-450.941 439.628 -455.551 443.045 -459.873 446.762L-459.873 -13.0921L37.0206 -13.0921Z" fill="#54137A"/>
<path fill-rule="evenodd" clip-rule="evenodd" d="M1270.35 261.085C1202.11 247.574 1150.87 221.777 1100.56 197.346C1049.62 172.64 998.372 153.534 923.851 139.749C858.764 127.737 691.807 113.409 640.871 105.627C449.077 76.0088 421.096 0.944489 379.273 -68.3901C369.529 -85.0446 353.495 -99.0993 332.745 -112.067L1042.08 -112.067L1393.92 -120.118V266.68C1354.61 270.775 1308.39 268.593 1270.35 261.085Z" fill="#C77DFF"/>
<path fill-rule="evenodd" clip-rule="evenodd" d="M1444.01 -42.1034V686.037C1318.76 681.698 1193.78 609.033 1173.84 437.468C1151.76 248.573 1048.06 236.54 884.513 175.908C732.944 119.598 707.949 5.30042 704.485 -41.8579L1444.01 -41.8579L1444.01 -42.1034Z" fill="#7B2CBF"/>
</g>
</g>
</g>
<defs>
<clipPath id="clip0_53_86">
<path d="M0 0H971V590C971 595.523 966.523 600 961 600H10C4.47716 600 0 595.523 0 590V0Z" fill="white"/>
</clipPath>
<clipPath id="clip1_53_86">
<rect width="1280" height="743" fill="white" transform="matrix(-1 0 0 -1 1125 743)"/>
</clipPath>
</defs>
</svg>
