<svg width="1280" height="743" viewBox="0 0 1280 743" fill="none" xmlns="http://www.w3.org/2000/svg">
<path d="M1280 743L0 743V0L1280 0V743Z" fill="#C7E6FF"/>
<g clip-path="url(#clip0_53_672)">
<mask id="mask0_53_672" style="mask-type:luminance" maskUnits="userSpaceOnUse" x="0" y="0" width="1280" height="743">
<path d="M1280 743L0 743V0L1280 0V743Z" fill="white"/>
</mask>
<g mask="url(#mask0_53_672)">
<path fill-rule="evenodd" clip-rule="evenodd" d="M1280 889.124L0 889.124V0.000366211L1280 0.000366211V889.124Z" fill="#E0AAFF"/>
<path fill-rule="evenodd" clip-rule="evenodd" d="M504.287 320.433C519.49 349.431 702.177 297.336 740.5 309C763.5 316 782.779 319.938 798.291 351.609C811.806 379.271 807.234 398.398 815.99 420.046C849.316 501.559 933.779 513.451 1011.8 531.225C1030.53 535.367 1046.35 542.181 1060.94 551V249.533L1070 100L681.246 152.519C676.639 169.225 495.839 304.263 504.287 320.433Z" fill="#994CDC"/>
<path fill-rule="evenodd" clip-rule="evenodd" d="M535.787 -210.067L-52.2426 258.321C-48.606 259.266 -44.6284 260.581 -41.2775 261.427C6.36485 272.744 46.3021 261.402 85.1856 251.542C124.871 241.686 158.509 237.93 209.834 251.113C256.83 263.259 375.302 330.76 410.104 341.748C541.308 383.436 574.147 289.458 620.306 220.38C646.749 181.078 689.775 159.93 749.664 166.281C803.175 171.965 1077.3 153.481 1134.99 190.704L999.219 44.6624L535.669 -209.973L535.787 -210.067Z" fill="#7B2CBF"/>
<path fill-rule="evenodd" clip-rule="evenodd" d="M1316.72 -197.987C1124.63 -158.907 1194.12 14.9853 1147.93 98.0637C1086.56 207.98 933.131 203.248 885.568 324.7C868.477 368.159 870.388 417.99 867.607 465.864C864.793 513.529 854.976 564.893 821.377 594.634C797.223 616.047 764.762 623.024 733.816 629.209C702.844 635.191 670.128 641.787 645.954 662.991C621.55 684.016 569.327 756.35 609.309 819.343C612.656 824.985 1448.02 738.785 1448.02 738.785L1316.72 -197.987Z" fill="#54137A"/>
<path fill-rule="evenodd" clip-rule="evenodd" d="M676.511 775.197C641.653 689.106 724.153 621.193 814.084 636.305C892.256 649.119 952.479 643.763 1005.08 628.462C1067.16 610.474 1132.95 572.596 1155.85 515.968C1172.76 474.452 1167.19 428.536 1166.36 383.961C1165.54 339.386 1172.14 290.985 1206.18 259.797C1248.04 221.346 1316.11 222.876 1368.08 196.283C1375.3 192.457 1381.91 188.057 1388.09 183.273V775.197L676.511 775.197Z" fill="#E0AAFF"/>
<path fill-rule="evenodd" clip-rule="evenodd" d="M1156.09 775.197C1183.78 758.458 1206.23 736.14 1217.83 708.237C1233.36 671.377 1228.12 630.796 1227.37 591.567C1226.81 552.171 1232.61 509.225 1263.48 481.834C1295.66 452.918 1345.25 449.536 1388.09 434.655V775.197L1156.09 775.197Z" fill="#54137A"/>
<path fill-rule="evenodd" clip-rule="evenodd" d="M-42.0178 162.114C13.5172 182.992 59.0731 229.508 103.573 273.414C148.632 317.805 192.543 351.138 252.959 372.026C305.719 390.213 437.006 404.386 477.897 415.429C631.948 457.638 671.808 603.196 720.852 736.297C732.402 768.294 748.126 794.638 767.192 818.443L224.369 878.184L-42.9034 923.681L-137.959 161.497C-108.884 150.117 -72.9783 150.525 -42.0178 162.114Z" fill="#9D4EDD"/>
<path fill-rule="evenodd" clip-rule="evenodd" d="M-126.55 757.86L-126.55 -97.8282C-123.667 -95.4717 -120.303 -93.1095 -117.666 -90.9193C-80.6995 -59.2355 -65.3398 -16.7614 -49.4983 23.6889C-33.1751 64.8157 -15.8885 96.1611 24.6785 129.536C61.8814 160.039 183.338 208.751 212.383 229.816C322.081 309.031 271.192 408.64 246.948 500.498C233.263 552.914 243.11 605.497 283.669 651.342C319.917 692.297 371.287 733.928 433.697 754.322L381.127 757.688L-126.55 757.688V757.86Z" fill="#54137A"/>
<path fill-rule="evenodd" clip-rule="evenodd" d="M-126.283 815.586L-126.283 271.101C-44.1535 274.345 37.7979 328.682 50.8714 456.975C65.3445 598.225 133.345 607.223 240.583 652.563C339.967 694.67 356.356 780.139 358.628 815.403L-126.283 815.403V815.586Z" fill="#7B2CBF"/>
<path fill-rule="evenodd" clip-rule="evenodd" d="M-312.317 652.602C-155.462 639.663 -193.105 504.867 -147.899 447.1C-87.8931 370.694 33.7374 387.023 83.9299 300.906C101.947 270.097 105.488 232.973 112.564 197.694C119.646 162.572 132.677 125.291 162.439 106.037C183.838 92.1709 210.382 89.7078 235.64 87.7059C260.897 85.8561 287.605 83.6971 308.999 69.9879C330.557 56.4307 379.469 7.13831 354.047 -42.9294C351.956 -47.3945 -321.648 -53.2482 -321.648 -53.2482L-312.317 652.602Z" fill="#9D4EDD"/>
<path fill-rule="evenodd" clip-rule="evenodd" d="M192.021 -13.0921C216.362 53.7902 158.752 106.551 95.9541 94.8105C41.3677 84.8549 -0.685654 89.0161 -37.413 100.903C-80.7648 114.878 -126.708 144.305 -142.696 188.298C-154.509 220.551 -150.618 256.222 -150.04 290.851C-149.467 325.481 -154.073 363.083 -177.84 387.312C-207.076 417.183 -254.607 415.995 -290.899 436.655C-295.941 439.628 -300.551 443.045 -304.873 446.762L-304.873 -13.0921L192.021 -13.0921Z" fill="#54137A"/>
<path fill-rule="evenodd" clip-rule="evenodd" d="M1425.35 261.085C1357.11 247.574 1305.87 221.777 1255.56 197.346C1204.62 172.64 1153.37 153.534 1078.85 139.749C1013.76 127.737 846.807 113.409 795.871 105.627C604.077 76.0089 576.096 0.944611 534.273 -68.39C524.529 -85.0445 508.495 -99.0992 487.745 -112.067L1197.08 -112.067L1548.92 -120.118V266.68C1509.61 270.776 1463.39 268.593 1425.35 261.085Z" fill="#C77DFF"/>
<path fill-rule="evenodd" clip-rule="evenodd" d="M1599.01 -42.1034V686.037C1473.76 681.698 1348.78 609.033 1328.84 437.468C1306.76 248.573 1203.06 236.54 1039.51 175.908C887.944 119.598 862.949 5.30042 859.485 -41.8579L1599.01 -41.8579L1599.01 -42.1034Z" fill="#7B2CBF"/>
</g>
</g>
<defs>
<clipPath id="clip0_53_672">
<rect width="1280" height="743" fill="white" transform="matrix(-1 0 0 -1 1280 743)"/>
</clipPath>
</defs>
</svg>
