<svg width="59" height="58" viewBox="0 0 59 58" fill="none" xmlns="http://www.w3.org/2000/svg">
<path d="M39.8 51.3832C38.2612 52.0526 36.4031 52.6188 34.2258 53.0819C32.0482 53.5697 29.9111 53.7991 27.8146 53.7699C25.7182 53.7408 23.5637 53.4518 21.3511 52.903C19.1628 52.3792 17.309 51.7491 15.7898 51.0126C14.2705 50.2761 13.0351 49.5312 12.0835 48.7779C11.1069 48.0489 10.6216 47.4624 10.6278 47.0185C10.634 46.5745 10.9234 46.1592 11.4962 45.7724C13.1775 47.2759 15.5036 48.5294 18.4746 49.5327C21.4456 50.5361 24.522 51.0599 27.7037 51.1041C30.8854 51.1483 34.0119 50.7231 37.0833 49.8283C40.1794 48.9339 42.6013 47.7341 44.349 46.2289C44.9108 46.6315 45.1886 47.0547 45.1825 47.4986C45.1759 47.9673 44.6619 48.5645 43.6404 49.2904C42.6436 50.0166 41.3634 50.7142 39.8 51.3832Z" fill="black"/>
<path d="M23.016 29.756C23.2587 29.756 23.4453 29.868 23.576 30.092C23.7253 30.316 23.8 30.624 23.8 31.016C23.8 31.744 23.6227 32.3227 23.268 32.752C22.2227 34.0027 21.2053 34.88 20.216 35.384C19.2453 35.888 18.0693 36.14 16.688 36.14C15.7173 36.14 14.8213 36.0187 14 35.776C13.1787 35.5333 12.18 35.1693 11.004 34.684C9.996 34.2547 9.1 33.9093 8.316 33.648C7.45733 34.5813 6.68267 35.2347 5.992 35.608C5.30133 35.9627 4.57333 36.14 3.808 36.14C2.78133 36.14 1.96 35.9067 1.344 35.44C0.728 34.9547 0.42 34.3293 0.42 33.564C0.42 32.9853 0.606667 32.4533 0.98 31.968C1.372 31.4827 1.91333 31.1 2.604 30.82C3.29467 30.54 4.09733 30.4 5.012 30.4C5.53467 30.4 5.92667 30.4093 6.188 30.428C9.84667 25.8733 13.1507 21.0667 16.1 16.008C14.4947 15.728 12.8613 15.588 11.2 15.588C9.05333 15.588 7.476 15.84 6.468 16.344C5.47867 16.8293 4.984 17.604 4.984 18.668C4.984 18.9853 5.02133 19.256 5.096 19.48C5.17067 19.704 5.28267 19.9653 5.432 20.264C5.6 20.6 5.684 20.8427 5.684 20.992C5.684 21.3653 5.50667 21.6827 5.152 21.944C4.816 22.1867 4.424 22.308 3.976 22.308C3.50933 22.308 3.12667 22.168 2.828 21.888C2.47333 21.5707 2.184 21.1413 1.96 20.6C1.75467 20.04 1.652 19.4147 1.652 18.724C1.652 16.54 2.55733 14.9253 4.368 13.88C6.17867 12.8347 8.568 12.312 11.536 12.312C13.0107 12.312 14.5133 12.396 16.044 12.564C17.5933 12.732 19.04 13.0027 20.384 13.376C20.944 13.5253 21.3173 13.74 21.504 14.02C21.6907 14.2813 21.784 14.6267 21.784 15.056C21.784 15.56 21.6533 15.952 21.392 16.232C21.1307 16.512 20.7667 16.652 20.3 16.652H20.104C18.088 19.9373 16.044 23.092 13.972 26.116C12.3107 28.524 11.144 30.1573 10.472 31.016C11.5547 31.2587 12.4973 31.4827 13.3 31.688C14.2893 31.9493 15.0827 32.1453 15.68 32.276C16.296 32.388 16.828 32.444 17.276 32.444C18.3587 32.444 19.2827 32.2667 20.048 31.912C20.832 31.5387 21.5693 30.9507 22.26 30.148C22.484 29.8867 22.736 29.756 23.016 29.756ZM24.6542 29.112C24.2062 29.1493 23.8422 29.0187 23.5622 28.72C23.3009 28.4213 23.1702 28.0013 23.1702 27.46C23.1702 26.956 23.2916 26.5827 23.5342 26.34C23.7956 26.0973 24.1689 25.9573 24.6542 25.92L30.3942 25.36C30.8609 25.3227 31.2156 25.444 31.4582 25.724C31.7196 25.9853 31.8502 26.3773 31.8502 26.9C31.8502 27.908 31.3649 28.4587 30.3942 28.552L24.6542 29.112ZM41.2672 36.14C39.9792 36.14 38.8125 35.8227 37.7672 35.188C36.7405 34.5533 35.9285 33.6387 35.3312 32.444C34.7339 31.2307 34.4352 29.8027 34.4352 28.16C34.4352 25.3227 35.0419 22.7 36.2552 20.292C37.4685 17.8653 39.2605 15.924 41.6312 14.468C44.0019 12.9933 46.8485 12.256 50.1712 12.256C51.0299 12.256 51.9445 12.3213 52.9152 12.452C53.9045 12.5827 54.8005 12.7787 55.6032 13.04C56.1259 13.1893 56.3872 13.5627 56.3872 14.16C56.3872 14.6453 56.2005 15.1027 55.8272 15.532C55.4725 15.9613 55.0525 16.176 54.5672 16.176C54.4179 16.176 54.3059 16.1667 54.2312 16.148C53.2605 15.924 52.4299 15.7653 51.7392 15.672C51.0485 15.56 50.3205 15.504 49.5552 15.504C47.1845 15.504 45.1685 16.0827 43.5072 17.24C41.8459 18.3787 40.6045 19.8907 39.7832 21.776C38.9619 23.6613 38.5512 25.696 38.5512 27.88C38.5512 29.4667 38.8592 30.6987 39.4752 31.576C40.1099 32.4347 40.9312 32.864 41.9392 32.864C43.0779 32.864 44.0765 32.3973 44.9352 31.464C45.7939 30.5307 46.5779 29.0187 47.2872 26.928C47.9965 24.8373 48.6965 22 49.3872 18.416C49.4992 17.8933 49.7232 17.5387 50.0592 17.352C50.3952 17.1653 50.8432 17.072 51.4032 17.072C52.7285 17.072 53.3912 17.5013 53.3912 18.36C53.3912 18.5093 53.3632 18.696 53.3072 18.92C52.8219 20.7307 52.3739 22.7373 51.9632 24.94C51.5712 27.124 51.3752 28.7853 51.3752 29.924C51.3752 30.932 51.5245 31.6693 51.8232 32.136C52.1219 32.584 52.5792 32.808 53.1952 32.808C53.7925 32.808 54.3619 32.612 54.9032 32.22C55.4445 31.8093 56.1259 31.1187 56.9472 30.148C57.1712 29.8867 57.4232 29.756 57.7032 29.756C57.9459 29.756 58.1325 29.868 58.2632 30.092C58.4125 30.316 58.4872 30.624 58.4872 31.016C58.4872 31.744 58.3099 32.3227 57.9552 32.752C57.0405 33.8533 56.1445 34.6933 55.2672 35.272C54.3899 35.8507 53.3165 36.14 52.0472 36.14C50.7405 36.14 49.6859 35.7667 48.8832 35.02C48.0805 34.2547 47.5765 33.1813 47.3712 31.8C45.9899 34.6933 43.9552 36.14 41.2672 36.14Z" fill="black"/>
</svg>
